<svg width="61" height="146" viewBox="0 0 61 146" fill="none" xmlns="http://www.w3.org/2000/svg">
<path d="M1 138H0V139H1V138ZM60.7071 138.707C61.0976 138.317 61.0976 137.683 60.7071 137.293L54.3431 130.929C53.9526 130.538 53.3195 130.538 52.9289 130.929C52.5384 131.319 52.5384 131.953 52.9289 132.343L58.5858 138L52.9289 143.657C52.5384 144.047 52.5384 144.681 52.9289 145.071C53.3195 145.462 53.9526 145.462 54.3431 145.071L60.7071 138.707ZM0 0V2.02941H2V0H0ZM0 6.08824V10.1471H2V6.08824H0ZM0 14.2059V18.2647H2V14.2059H0ZM0 22.3235V26.3824H2V22.3235H0ZM0 30.4412V34.5H2V30.4412H0ZM0 38.5588V42.6176H2V38.5588H0ZM0 46.6765V50.7353H2V46.6765H0ZM0 54.7941V58.8529H2V54.7941H0ZM0 62.9118V66.9706H2V62.9118H0ZM0 71.0294V75.0882H2V71.0294H0ZM0 79.1471V83.2059H2V79.1471H0ZM0 87.2647V91.3235H2V87.2647H0ZM0 95.3823V99.4412H2V95.3823H0ZM0 103.5V107.559H2V103.5H0ZM0 111.618V115.676H2V111.618H0ZM0 119.735V123.794H2V119.735H0ZM0 127.853V131.912H2V127.853H0ZM0 135.971V138H2V135.971H0ZM1 139H3.10714V137H1V139ZM7.32143 139H11.5357V137H7.32143V139ZM15.75 139H19.9643V137H15.75V139ZM24.1786 139H28.3929V137H24.1786V139ZM32.6071 139H36.8214V137H32.6071V139ZM41.0357 139H45.25V137H41.0357V139ZM49.4643 139H53.6786V137H49.4643V139ZM57.8929 139H60V137H57.8929V139Z" fill="white"/>
</svg>
