<svg width="46" height="46" viewBox="0 0 46 46" fill="none" xmlns="http://www.w3.org/2000/svg">
<path d="M21.2063 5.59658C21.7551 5.29178 22.3726 5.13184 23.0004 5.13184C23.6282 5.13184 24.2457 5.29178 24.7945 5.59658L38.68 13.3089C38.9679 13.469 39.2077 13.7031 39.3747 13.987C39.5417 14.271 39.6297 14.5944 39.6297 14.9238V30.1396C39.6296 30.7986 39.4532 31.4455 39.1189 32.0134C38.7846 32.5813 38.3045 33.0494 37.7284 33.3694L24.7945 40.5569C24.2457 40.8617 23.6282 41.0217 23.0004 41.0217C22.3726 41.0217 21.7551 40.8617 21.2063 40.5569L8.27238 33.3694C7.69655 33.0496 7.21666 32.5817 6.88238 32.0142C6.5481 31.4467 6.37158 30.8001 6.37109 30.1414V14.9238C6.37108 14.5944 6.45912 14.271 6.6261 13.987C6.79309 13.7031 7.03293 13.469 7.32081 13.3089L21.2081 5.59658H21.2063Z" stroke="white" stroke-width="2.21724" stroke-linecap="round" stroke-linejoin="round"/>
<path d="M23.0004 23.0764V40.6296M6.37109 13.8379L23.0004 23.0764L6.37109 13.8379ZM23.0004 23.0764L39.6297 13.8379L23.0004 23.0764Z" stroke="white" stroke-width="2.21724" stroke-linecap="round" stroke-linejoin="round"/>
<path d="M14.6855 18.4563L31.3149 9.21777" stroke="white" stroke-width="2.21724" stroke-linecap="round" stroke-linejoin="round"/>
<path d="M11.9141 23.6826L17.4572 26.772" stroke="white" stroke-width="2.21724" stroke-linecap="round" stroke-linejoin="round"/>
</svg>
